<svg width="64" height="64" viewBox="0 0 64 64" fill="none" xmlns="http://www.w3.org/2000/svg">
<rect x="7" y="6" width="53" height="51" rx="10" fill="white"/>
<mask id="mask0" mask-type="alpha" maskUnits="userSpaceOnUse" x="16" y="12" width="33" height="36">
<path d="M28.3203 17.4326L28.3203 18.4327L28.3328 18.4325L28.3203 17.4326ZM25.0391 23.0723L24.3173 23.7644L24.3205 23.7677L25.0391 23.0723ZM26.3516 24.3643L25.6662 25.0925L25.672 25.0979L25.6778 25.1032L26.3516 24.3643ZM27.6641 25.7793L28.4534 25.1653L28.4489 25.1597L27.6641 25.7793ZM29.0791 29.7578L28.0791 29.7482V29.7578H29.0791ZM21.2246 33.0391L21.9425 32.3429L21.9371 32.3374L21.2246 33.0391ZM21.7168 26.1074L21.1216 25.3039L21.1156 25.3083L21.1097 25.3128L21.7168 26.1074ZM22.9473 25.4512L23.289 26.391L25.045 25.7524L23.5397 24.6455L22.9473 25.4512ZM20.4863 17.6582L19.5647 17.2701L19.5613 17.2783L20.4863 17.6582ZM21.9629 15.6484L21.3176 14.8845L21.3134 14.8881L21.9629 15.6484ZM28.3203 13.8643L28.3233 12.8643H28.3203V13.8643ZM37.5488 18.5195L38.4433 18.0723L38.4385 18.0629L37.5488 18.5195ZM38.3691 22.0469L37.3691 22.0469L37.3692 22.0577L38.3691 22.0469ZM38.082 25.2871L39.0564 25.512L39.0572 25.5087L38.082 25.2871ZM37.2617 27.8711L38.1848 28.2557L38.187 28.2503L37.2617 27.8711ZM36.0928 30.25L36.9517 30.7622L36.9564 30.7542L36.961 30.7461L36.0928 30.25ZM34.7598 32.4854L33.9009 31.9732L33.5054 32.6364L34.047 33.1868L34.7598 32.4854ZM36.0312 33.7773L35.3185 34.4788L35.9104 35.0802L36.6028 34.5979L36.0312 33.7773ZM39.0049 31.7061L39.5764 32.5266L40.0049 32.2282V31.7061H39.0049ZM39.0049 22.0674L38.0049 22.0616V22.0674H39.0049ZM41.4863 16.1406L40.795 15.4181L40.7944 15.4186L41.4863 16.1406ZM47.3516 13.8643H48.3516V12.8643H47.3516V13.8643ZM47.3516 17.4121V18.4121H48.3516V17.4121H47.3516ZM43.5371 19.2168L44.3624 19.7815L44.3633 19.7801L43.5371 19.2168ZM42.4912 23.4209L43.4912 23.4209L43.4912 23.4131L42.4912 23.4209ZM42.4912 37.8379L43.4912 37.8463V37.8379H42.4912ZM45.1777 42.3906L44.5626 43.179L44.5652 43.181L45.1777 42.3906ZM46.9414 43.6621L47.7628 44.2325L48.3412 43.3996L47.5003 42.8328L46.9414 43.6621ZM44.8906 46.6152L44.3291 47.4427L45.1477 47.9982L45.712 47.1856L44.8906 46.6152ZM40.9941 43.334L41.7868 42.7243L41.7842 42.7209L40.9941 43.334ZM39.0049 35.8281H40.0049V33.8534L38.4131 35.022L39.0049 35.8281ZM35.7646 38.207L35.0898 38.945L35.6952 39.4986L36.3565 39.0131L35.7646 38.207ZM32.6475 35.3564L33.3223 34.6185L32.532 33.8957L31.865 34.7337L32.6475 35.3564ZM23.8496 44.4414L24.4918 45.2079L24.4956 45.2048L23.8496 44.4414ZM21.0195 46.6152L20.3386 47.3476L20.9256 47.8933L21.5861 47.4393L21.0195 46.6152ZM18.3945 44.1748L17.8111 43.3626L16.8189 44.0754L17.7136 44.9072L18.3945 44.1748ZM29.5098 33.9414L30.2789 34.5805L30.2792 34.5802L29.5098 33.9414ZM31.1914 17.8223L30.8752 18.771L30.8878 18.7751L31.1914 17.8223ZM23.6855 29.0195L22.9784 28.3124L22.967 28.3238L22.956 28.3356L23.6855 29.0195ZM23.6855 30.5986L22.956 31.2826L22.9781 31.3061L23.0016 31.3282L23.6855 30.5986ZM25.2646 30.5986L25.9486 31.3282L25.9604 31.3171L25.9718 31.3057L25.2646 30.5986ZM28.3203 16.4326C26.6837 16.4326 25.2926 16.6652 24.2793 17.2556C23.1831 17.8942 22.6035 18.9118 22.6035 20.1807H24.6035C24.6035 19.6175 24.8101 19.261 25.2861 18.9837C25.8451 18.658 26.8124 18.4326 28.3203 18.4326V16.4326ZM22.6035 20.1807C22.6035 21.4701 23.2674 22.6696 24.3173 23.7644L25.7608 22.3801C24.8966 21.4789 24.6035 20.7506 24.6035 20.1807H22.6035ZM24.3205 23.7677C24.7423 24.2036 25.1909 24.6452 25.6662 25.0925L27.0369 23.6361C26.5825 23.2084 26.1562 22.7886 25.7577 22.3768L24.3205 23.7677ZM25.6778 25.1032C26.1004 25.4885 26.501 25.9199 26.8792 26.3989L28.4489 25.1597C28.0068 24.5996 27.5324 24.0877 27.0253 23.6253L25.6778 25.1032ZM26.8747 26.3932C27.7074 27.4638 28.0904 28.5741 28.0791 29.7482L30.0791 29.7674C30.0951 28.0978 29.5348 26.5557 28.4534 25.1654L26.8747 26.3932ZM28.0791 29.7578C28.0791 30.7967 27.7296 31.6414 27.0185 32.3525L28.4327 33.7667C29.5263 32.6731 30.0791 31.3166 30.0791 29.7578H28.0791ZM27.0185 32.3525C26.3242 33.0467 25.4879 33.3926 24.4443 33.3926V35.3926C25.9985 35.3926 27.3496 34.8498 28.4327 33.7667L27.0185 32.3525ZM24.4443 33.3926C23.4399 33.3926 22.6267 33.0485 21.9425 32.3429L20.5067 33.7352C21.5725 34.8343 22.9058 35.3926 24.4443 35.3926V33.3926ZM21.9371 32.3374C21.2357 31.6252 20.8916 30.7847 20.8916 29.7578H18.8916C18.8916 31.3012 19.4362 32.6483 20.5121 33.7408L21.9371 32.3374ZM20.8916 29.7578C20.8916 28.5721 21.3494 27.6466 22.3239 26.902L21.1097 25.3128C19.6506 26.4276 18.8916 27.9357 18.8916 29.7578H20.8916ZM22.312 26.911C22.6003 26.6975 22.9244 26.5236 23.289 26.391L22.6055 24.5114C22.0678 24.7069 21.5716 24.9705 21.1216 25.3039L22.312 26.911ZM23.5397 24.6455C22.6353 23.9805 22.1122 23.4677 21.8686 23.1071L20.2115 24.2268C20.6514 24.878 21.3999 25.5546 22.3549 26.2568L23.5397 24.6455ZM21.8686 23.1071C21.2848 22.2431 21.0146 21.3758 21.0146 20.4883H19.0146C19.0146 21.8156 19.4281 23.0675 20.2115 24.2268L21.8686 23.1071ZM21.0146 20.4883C21.0146 19.4541 21.1606 18.6487 21.4113 18.0381L19.5613 17.2783C19.1832 18.199 19.0146 19.2803 19.0146 20.4883H21.0146ZM21.408 18.0463C21.6743 17.4136 22.0721 16.8703 22.6124 16.4088L21.3134 14.8881C20.5412 15.5476 19.9546 16.3442 19.5647 17.2701L21.408 18.0463ZM22.6082 16.4124C23.7612 15.4385 25.6056 14.8643 28.3203 14.8643V12.8643C25.3749 12.8643 22.981 13.4795 21.3176 14.8845L22.6082 16.4124ZM28.3173 14.8643C32.6473 14.8772 35.2988 16.3257 36.6592 18.9762L38.4385 18.0629C36.627 14.5336 33.1261 12.8786 28.3233 12.8643L28.3173 14.8643ZM36.6544 18.9667C37.1298 19.9176 37.3691 20.9397 37.3691 22.0469H39.3691C39.3691 20.6384 39.0616 19.309 38.4433 18.0723L36.6544 18.9667ZM37.3692 22.0577C37.3823 23.2633 37.2897 24.2611 37.1069 25.0655L39.0572 25.5087C39.2845 24.5084 39.3833 23.3461 39.3691 22.036L37.3692 22.0577ZM37.1076 25.0622C36.9146 25.8989 36.6575 26.7085 36.3364 27.4919L38.187 28.2503C38.5496 27.3657 38.8393 26.4527 39.0564 25.512L37.1076 25.0622ZM36.3386 27.4865C36.0127 28.2688 35.6413 29.0245 35.2245 29.7539L36.961 30.7461C37.4192 29.9442 37.8272 29.114 38.1848 28.2557L36.3386 27.4865ZM35.2339 29.7378L33.9009 31.9732L35.6186 32.9975L36.9517 30.7622L35.2339 29.7378ZM34.047 33.1868L35.3185 34.4788L36.744 33.0759L35.4725 31.7839L34.047 33.1868ZM36.6028 34.5979L39.5764 32.5266L38.4333 30.8855L35.4597 32.9568L36.6028 34.5979ZM40.0049 31.7061V22.0674H38.0049V31.7061H40.0049ZM40.0049 22.0731C40.0171 19.9506 40.743 18.238 42.1782 16.8626L40.7944 15.4186C38.9484 17.1877 38.02 19.4263 38.0049 22.0616L40.0049 22.0731ZM42.1777 16.8631C43.5658 15.5349 45.2682 14.8643 47.3516 14.8643V12.8643C44.7865 12.8643 42.5788 13.7112 40.795 15.4181L42.1777 16.8631ZM46.3516 13.8643V17.4121H48.3516V13.8643H46.3516ZM47.3516 16.4121C45.3678 16.4121 43.7535 17.1243 42.7109 18.6535L44.3633 19.7801C44.9613 18.9031 45.89 18.4121 47.3516 18.4121V16.4121ZM42.7118 18.6521C41.8477 19.915 41.4766 21.54 41.4912 23.4287L43.4912 23.4131C43.4785 21.7745 43.8046 20.5968 44.3624 19.7815L42.7118 18.6521ZM41.4912 23.4209V37.8379H43.4912V23.4209H41.4912ZM41.4912 37.8295C41.474 39.8806 42.6183 41.6619 44.5626 43.179L45.7929 41.6022C44.1278 40.3029 43.4811 39.0491 43.4912 37.8463L41.4912 37.8295ZM44.5652 43.181C45.1311 43.6196 45.737 44.0564 46.3826 44.4914L47.5003 42.8328C46.888 42.4202 46.3181 42.0093 45.7903 41.6002L44.5652 43.181ZM46.12 43.0917L44.0693 46.0448L45.712 47.1856L47.7628 44.2325L46.12 43.0917ZM45.4521 45.7878C43.5531 44.4992 42.3675 43.4792 41.7868 42.7243L40.2015 43.9437C40.988 44.9661 42.4 46.1337 44.3291 47.4427L45.4521 45.7878ZM41.7842 42.7209C40.5732 41.1604 40.0049 39.5733 40.0049 37.9404H38.0049C38.0049 40.081 38.7627 42.0896 40.2041 43.947L41.7842 42.7209ZM40.0049 37.9404V35.8281H38.0049V37.9404H40.0049ZM38.4131 35.022L35.1728 37.401L36.3565 39.0131L39.5967 36.6342L38.4131 35.022ZM36.4395 37.4691L33.3223 34.6185L31.9726 36.0944L35.0898 38.945L36.4395 37.4691ZM31.865 34.7337C29.2389 38.0332 26.3518 41.0142 23.2037 43.678L24.4956 45.2048C27.7458 42.4546 30.724 39.3789 33.4299 35.9792L31.865 34.7337ZM23.2074 43.6749C22.2144 44.5068 21.2965 45.2113 20.453 45.7912L21.5861 47.4393C22.4926 46.8161 23.4614 46.0713 24.4918 45.2079L23.2074 43.6749ZM21.7004 45.8828L19.0754 43.4424L17.7136 44.9072L20.3386 47.3476L21.7004 45.8828ZM18.978 44.987C23.3605 41.8388 27.1296 38.3707 30.2789 34.5805L28.7406 33.3023C25.7102 36.9496 22.0692 40.3038 17.8111 43.3626L18.978 44.987ZM30.2792 34.5802C33.9374 30.1736 35.9238 26.1525 35.9238 22.5596H33.9238C33.9238 25.4471 32.3008 29.0139 28.7404 33.3027L30.2792 34.5802ZM35.9238 22.5596C35.9238 21.1937 35.5608 19.9782 34.7762 18.9824C33.9983 17.9951 32.8732 17.3087 31.495 16.8695L30.8878 18.7751C31.9979 19.1288 32.739 19.6284 33.2052 20.2202C33.6648 20.8035 33.9238 21.5602 33.9238 22.5596H35.9238ZM31.5076 16.8736C30.5575 16.5569 29.485 16.418 28.3078 16.4327L28.3328 18.4325C29.3431 18.4199 30.1846 18.5408 30.8752 18.7709L31.5076 16.8736ZM24.4648 27.6914C23.8905 27.6914 23.3787 27.9121 22.9784 28.3124L24.3927 29.7266C24.4067 29.7126 24.4169 29.7047 24.4228 29.7007C24.4285 29.6968 24.4316 29.6954 24.4325 29.6951C24.4333 29.6947 24.4349 29.6941 24.4385 29.6934C24.4422 29.6927 24.4505 29.6914 24.4648 29.6914V27.6914ZM22.956 28.3356C22.5681 28.7494 22.3779 29.2645 22.3779 29.8193H24.3779C24.3779 29.7453 24.3929 29.7272 24.4151 29.7035L22.956 28.3356ZM22.3779 29.8193C22.3779 30.3733 22.5766 30.8778 22.956 31.2826L24.4151 29.9147C24.3924 29.8905 24.3866 29.8768 24.385 29.8726C24.3833 29.8683 24.3779 29.8538 24.3779 29.8193H22.3779ZM23.0016 31.3282C23.4063 31.7076 23.9109 31.9062 24.4648 31.9062V29.9062C24.4304 29.9062 24.4158 29.9009 24.4116 29.8992C24.4074 29.8975 24.3937 29.8918 24.3695 29.8691L23.0016 31.3282ZM24.4648 31.9062C25.0197 31.9062 25.5348 31.7161 25.9486 31.3282L24.5807 29.8691C24.557 29.8913 24.5389 29.9062 24.4648 29.9062V31.9062ZM25.9718 31.3057C26.3721 30.9054 26.5928 30.3937 26.5928 29.8193H24.5928C24.5928 29.8337 24.5915 29.842 24.5908 29.8457C24.5901 29.8493 24.5895 29.8509 24.5891 29.8517C24.5887 29.8526 24.5874 29.8556 24.5835 29.8614C24.5794 29.8672 24.5716 29.8775 24.5575 29.8915L25.9718 31.3057ZM26.5928 29.8193C26.5928 29.2446 26.3815 28.7221 25.9718 28.3124L24.5575 29.7266C24.5802 29.7493 24.5848 29.7611 24.5856 29.7631C24.5865 29.7654 24.5928 29.7804 24.5928 29.8193H26.5928ZM25.9718 28.3124C25.562 27.9027 25.0396 27.6914 24.4648 27.6914V29.6914C24.5038 29.6914 24.5188 29.6977 24.5211 29.6986C24.523 29.6994 24.5349 29.704 24.5575 29.7266L25.9718 28.3124Z" fill="black"/>
</mask>
<g mask="url(#mask0)">
<rect x="6" y="5" width="55" height="53" fill="url(#paint0_linear)"/>
</g>
<defs>
<linearGradient id="paint0_linear" x1="6" y1="31.5" x2="61" y2="31.5" gradientUnits="userSpaceOnUse">
<stop stop-color="#C84E89"/>
<stop offset="1" stop-color="#F15F79"/>
</linearGradient>
</defs>
</svg>
